<svg width="29" height="22" viewBox="0 0 29 22" fill="none" xmlns="http://www.w3.org/2000/svg">
<path d="M2.4623 4.62895H26.2623C27.4224 4.62895 28.3623 3.68901 28.3623 2.52895C28.3623 1.3689 27.4224 0.428955 26.2623 0.428955H2.4623C1.30225 0.428955 0.362305 1.3689 0.362305 2.52895C0.362305 3.68901 1.30225 4.62895 2.4623 4.62895Z" fill="#4C0085"/>
<path d="M26.2623 8.82886H2.4623C1.30225 8.82886 0.362305 9.7688 0.362305 10.9289C0.362305 12.0889 1.30225 13.0289 2.4623 13.0289H26.2623C27.4224 13.0289 28.3623 12.0889 28.3623 10.9289C28.3623 9.7688 27.4224 8.82886 26.2623 8.82886Z" fill="#4C0085"/>
<path d="M26.2623 17.229H2.4623C1.30225 17.229 0.362305 18.1689 0.362305 19.329C0.362305 20.4891 1.30225 21.429 2.4623 21.429H26.2623C27.4224 21.429 28.3623 20.4891 28.3623 19.329C28.3623 18.1689 27.4224 17.229 26.2623 17.229Z" fill="#4C0085"/>
</svg>
