<svg width="22" height="22" viewBox="0 0 22 22" fill="none" xmlns="http://www.w3.org/2000/svg">
<path d="M10.9995 0.000488281C4.92519 0.000488281 -1.52588e-05 4.92569 -1.52588e-05 11C-1.52588e-05 17.0743 4.92519 22.0005 10.9995 22.0005C17.0738 22.0005 22 17.0743 22 11C22 4.92569 17.0738 0.000488281 10.9995 0.000488281ZM13.2894 17.0483C12.7232 17.2718 12.2725 17.4412 11.9345 17.5586C11.5974 17.6759 11.2053 17.7346 10.7593 17.7346C10.0739 17.7346 9.5403 17.567 9.16037 17.2327C8.78043 16.8983 8.59139 16.4746 8.59139 15.9597C8.59139 15.7595 8.60536 15.5546 8.6333 15.346C8.66216 15.1374 8.70779 14.9028 8.77019 14.6392L9.47884 12.1361C9.54123 11.8959 9.59524 11.6677 9.63808 11.4554C9.68091 11.2412 9.7014 11.0447 9.7014 10.8659C9.7014 10.5475 9.63529 10.324 9.50398 10.1982C9.37082 10.0725 9.12032 10.0111 8.7469 10.0111C8.56439 10.0111 8.37628 10.0381 8.18352 10.0949C7.99262 10.1535 7.82686 10.2066 7.6909 10.2588L7.87808 9.48773C8.34183 9.29869 8.78602 9.13666 9.20972 9.00256C9.63342 8.8666 10.0338 8.79956 10.411 8.79956C11.0917 8.79956 11.6169 8.96531 11.9866 9.2931C12.3544 9.62182 12.5398 10.0492 12.5398 10.5745C12.5398 10.6834 12.5267 10.8752 12.5016 11.149C12.4764 11.4237 12.4289 11.6742 12.36 11.9042L11.6551 14.3999C11.5974 14.6001 11.5461 14.8292 11.4996 15.0853C11.454 15.3414 11.4316 15.5369 11.4316 15.6682C11.4316 15.9997 11.5052 16.226 11.6542 16.3461C11.8013 16.4663 12.0592 16.5268 12.4243 16.5268C12.5966 16.5268 12.7893 16.4961 13.0072 16.4365C13.2233 16.3769 13.3797 16.3238 13.4784 16.2782L13.2894 17.0483ZM13.1646 6.9185C12.8359 7.22394 12.4401 7.37666 11.9773 7.37666C11.5154 7.37666 11.1169 7.22394 10.7853 6.9185C10.4557 6.61306 10.289 6.2415 10.289 5.80756C10.289 5.37454 10.4566 5.00205 10.7853 4.69382C11.1169 4.38466 11.5154 4.23101 11.9773 4.23101C12.4401 4.23101 12.8368 4.38466 13.1646 4.69382C13.4933 5.00205 13.6581 5.37454 13.6581 5.80756C13.6581 6.24243 13.4933 6.61306 13.1646 6.9185Z" fill="#4C0085"/>
</svg>
