<svg width="138" height="36" viewBox="0 0 138 36" fill="none" xmlns="http://www.w3.org/2000/svg">
<path d="M55.452 11.8C56.6573 11.8 57.5693 12.1147 58.188 12.744C58.8173 13.3627 59.132 14.2747 59.132 15.48V19.32C59.132 20.5253 58.8173 21.4427 58.188 22.072C57.5693 22.6907 56.6573 23 55.452 23H49.212V11.8H55.452ZM56.252 15.48C56.252 14.52 55.772 14.04 54.812 14.04H52.092V20.76H54.812C55.772 20.76 56.252 20.28 56.252 19.32V15.48ZM68.4076 14.84C68.4076 14.2 68.0876 13.88 67.4476 13.88H64.7276C64.0876 13.88 63.7676 14.2 63.7676 14.84V19.96C63.7676 20.6 64.0876 20.92 64.7276 20.92H67.4476C68.0876 20.92 68.4076 20.6 68.4076 19.96V14.84ZM71.2876 19.96C71.2876 21.08 71.0316 21.896 70.5196 22.408C70.0183 22.9093 69.2076 23.16 68.0876 23.16H64.0876C62.9676 23.16 62.1516 22.9093 61.6396 22.408C61.1383 21.896 60.8876 21.08 60.8876 19.96V14.84C60.8876 13.72 61.1383 12.9093 61.6396 12.408C62.1516 11.896 62.9676 11.64 64.0876 11.64H68.0876C69.2076 11.64 70.0183 11.896 70.5196 12.408C71.0316 12.9093 71.2876 13.72 71.2876 14.84V19.96ZM73.0391 20.68C75.9618 20.84 77.9405 20.92 78.9751 20.92C79.2205 20.92 79.4125 20.8507 79.5511 20.712C79.7005 20.5627 79.7751 20.3653 79.7751 20.12V18.68H76.0951C74.9751 18.68 74.1591 18.4293 73.6471 17.928C73.1458 17.416 72.8951 16.6 72.8951 15.48V15C72.8951 13.88 73.1458 13.0693 73.6471 12.568C74.1591 12.056 74.9751 11.8 76.0951 11.8H81.7111V14.04H76.7351C76.0951 14.04 75.7751 14.36 75.7751 15V15.32C75.7751 15.96 76.0951 16.28 76.7351 16.28H79.6151C80.6605 16.28 81.4285 16.5253 81.9191 17.016C82.4098 17.5067 82.6551 18.2747 82.6551 19.32V20.12C82.6551 21.1653 82.4098 21.9333 81.9191 22.424C81.4285 22.9147 80.6605 23.16 79.6151 23.16C79.0711 23.16 78.4951 23.1493 77.8871 23.128L76.4151 23.064C75.3271 23.0107 74.2018 22.936 73.0391 22.84V20.68ZM89.217 23H86.337V14.04H82.977V11.8H92.577V14.04H89.217V23ZM95.0539 23H91.9339L96.1739 11.8H99.3739L103.614 23H100.494L99.7739 21H95.7739L95.0539 23ZM96.4939 18.92H99.0539L97.7739 15.16L96.4939 18.92ZM108.488 19.64L111.208 11.8H114.328L110.088 23H106.888L102.648 11.8H105.768L108.488 19.64ZM124.488 23H115.608V11.8H124.488V14.04H118.488V16.2H123.208V18.44H118.488V20.76H124.488V23ZM126.244 11.8H132.964C134.084 11.8 134.895 12.056 135.396 12.568C135.908 13.0693 136.164 13.88 136.164 15V16.44C136.164 17.3253 136.015 18.0133 135.716 18.504C135.428 18.9947 134.964 19.32 134.324 19.48L136.324 23H133.204L131.364 19.64H129.124V23H126.244V11.8ZM133.284 15C133.284 14.36 132.964 14.04 132.324 14.04H129.124V17.4H132.324C132.964 17.4 133.284 17.08 133.284 16.44V15Z" fill="#4C0085"/>
<path d="M17.9997 33.7019C9.32762 33.7019 2.29746 26.6721 2.29746 18C2.29746 9.32794 9.32762 2.29778 17.9997 2.29778C26.6721 2.29778 33.7019 9.32794 33.7019 18C33.7019 18.6344 34.2168 19.1489 34.8508 19.1489C35.4848 19.1489 35.9994 18.634 35.9994 18C35.9994 8.05925 27.9405 0 17.9997 0C8.05893 0 0 8.05925 0 18C0 27.9408 8.05893 36 17.9997 36C18.634 36 19.1486 35.4852 19.1486 34.8511C19.1486 34.2171 18.634 33.7019 17.9997 33.7019Z" fill="#4C0085"/>
<path d="M17.9997 33.7019C9.32762 33.7019 2.29746 26.6721 2.29746 18C2.29746 9.32794 9.32762 2.29778 17.9997 2.29778C26.6721 2.29778 33.7019 9.32794 33.7019 18C33.7019 18.6344 34.2168 19.1489 34.8508 19.1489C35.4848 19.1489 35.9994 18.634 35.9994 18C35.9994 8.05925 27.9405 0 17.9997 0C8.05893 0 0 8.05925 0 18C0 27.9408 8.05893 36 17.9997 36C18.634 36 19.1486 35.4852 19.1486 34.8511C19.1486 34.2171 18.634 33.7019 17.9997 33.7019Z" fill="#4C0085"/>
<path d="M16.8508 5.74491V18.3827H10.3397C9.70598 18.3827 9.19144 18.8976 9.19144 19.5316C9.19144 20.1666 9.7063 20.6811 10.3397 20.6811H17.9997C18.634 20.6811 19.1486 20.1663 19.1486 19.5316V5.74491C19.1486 5.11025 18.6337 4.5957 17.9997 4.5957C17.3657 4.5957 16.8508 5.11057 16.8508 5.74491Z" fill="#4C0085"/>
<path d="M16.8508 5.74491V18.3827H10.3397C9.70598 18.3827 9.19144 18.8976 9.19144 19.5316C9.19144 20.1666 9.7063 20.6811 10.3397 20.6811H17.9997C18.634 20.6811 19.1486 20.1663 19.1486 19.5316V5.74491C19.1486 5.11025 18.6337 4.5957 17.9997 4.5957C17.3657 4.5957 16.8508 5.11057 16.8508 5.74491Z" fill="#4C0085"/>
<path d="M27.1911 18.3826C22.3261 18.3826 18.3825 22.3261 18.3825 27.1911C18.3825 32.0565 22.3258 36 27.1911 36C32.0558 36 35.9994 32.0568 35.9994 27.1911C35.9994 22.3261 32.0561 18.3826 27.1911 18.3826ZM27.2978 31.1141C26.9152 31.6207 26.1938 31.7209 25.688 31.3383L22.1748 28.6824C21.6696 28.3005 21.569 27.5795 21.9522 27.073C22.3344 26.5671 23.0558 26.4669 23.5611 26.8488L26.1579 28.8119L29.8188 23.9687C30.2013 23.4625 30.9224 23.3623 31.4282 23.7448C31.9341 24.1273 32.0346 24.8484 31.6518 25.3546L27.2978 31.1141Z" fill="#7700D1"/>
<path d="M27.1911 18.3826C22.3261 18.3826 18.3825 22.3261 18.3825 27.1911C18.3825 32.0565 22.3258 36 27.1911 36C32.0558 36 35.9994 32.0568 35.9994 27.1911C35.9994 22.3261 32.0561 18.3826 27.1911 18.3826ZM27.2978 31.1141C26.9152 31.6207 26.1938 31.7209 25.688 31.3383L22.1748 28.6824C21.6696 28.3005 21.569 27.5795 21.9522 27.073C22.3344 26.5671 23.0558 26.4669 23.5611 26.8488L26.1579 28.8119L29.8188 23.9687C30.2013 23.4625 30.9224 23.3623 31.4282 23.7448C31.9341 24.1273 32.0346 24.8484 31.6518 25.3546L27.2978 31.1141Z" fill="#4C0085"/>
</svg>
