<svg width="24" height="27" viewBox="0 0 24 27" fill="none" xmlns="http://www.w3.org/2000/svg">
<path d="M11.9997 26.939C13.5583 26.939 14.9005 25.9975 15.4894 24.6538H8.51012C9.09903 25.9975 10.4412 26.939 11.9997 26.939Z" fill="white"/>
<path d="M19.8709 13.5257V11.8569C19.8709 8.31129 17.514 5.3061 14.2849 4.32455V3.22412C14.2849 1.96409 13.2598 0.938965 11.9998 0.938965C10.7397 0.938965 9.7146 1.96409 9.7146 3.22412V4.32455C6.48542 5.3061 4.12866 8.31123 4.12866 11.8569V13.5257C4.12866 16.6402 2.9415 19.5935 0.785883 21.8414C0.574633 22.0617 0.51527 22.3868 0.635012 22.6675C0.754754 22.9482 1.0305 23.1304 1.33569 23.1304H22.6638C22.969 23.1304 23.2447 22.9482 23.3645 22.6675C23.4842 22.3868 23.4248 22.0617 23.2136 21.8414C21.058 19.5935 19.8709 16.6402 19.8709 13.5257ZM12.7615 4.02281C12.5108 3.99864 12.2567 3.98584 11.9998 3.98584C11.7428 3.98584 11.4887 3.99864 11.238 4.02281V3.22412C11.238 2.80411 11.5797 2.4624 11.9998 2.4624C12.4198 2.4624 12.7615 2.80411 12.7615 3.22412V4.02281Z" fill="white"/>
<path d="M21.9021 11.857C21.9021 12.2776 22.2431 12.6187 22.6638 12.6187C23.0845 12.6187 23.4255 12.2776 23.4255 11.857C23.4255 8.805 22.237 5.9357 20.079 3.77765C19.7816 3.48023 19.2993 3.48018 19.0018 3.77765C18.7043 4.07513 18.7043 4.5574 19.0018 4.85488C20.8721 6.7252 21.9021 9.21191 21.9021 11.857Z" fill="white"/>
<path d="M1.33569 12.6186C1.75637 12.6186 2.09741 12.2776 2.09741 11.8569C2.09741 9.21193 3.12746 6.72522 4.99773 4.8549C5.29521 4.55742 5.29521 4.07515 4.99773 3.77767C4.70031 3.4802 4.21799 3.4802 3.92051 3.77767C1.76246 5.93572 0.573975 8.80496 0.573975 11.8569C0.573975 12.2776 0.915022 12.6186 1.33569 12.6186Z" fill="white"/>
</svg>
