<svg width="369" height="380" viewBox="0 0 369 380" fill="none" xmlns="http://www.w3.org/2000/svg">
<path d="M80.6096 159.681H94.9671C100.079 159.681 104.239 163.841 104.24 168.952V180.7C104.24 185.813 100.079 189.973 94.9671 189.973H80.6096C75.4975 189.973 71.3372 185.813 71.3372 180.7V168.952L71.3489 168.477C71.5976 163.586 75.6571 159.681 80.6096 159.681ZM80.4729 180.837H95.1038V168.817H80.4729V180.837Z" fill="white" stroke="#7700D1" stroke-width="2"/>
<path d="M32.5442 159.681H46.9007C52.0128 159.681 56.1739 163.841 56.1741 168.952V180.7C56.1741 185.813 52.0129 189.973 46.9007 189.973H32.5442C27.432 189.973 23.2718 185.813 23.2718 180.7V168.952L23.2835 168.477C23.5322 163.586 27.5916 159.681 32.5442 159.681ZM32.4075 180.837H47.0374V168.817H32.4075V180.837Z" fill="white" stroke="#7700D1" stroke-width="2"/>
<path d="M80.6096 201.965H94.9671C100.079 201.965 104.239 206.125 104.24 211.237V222.985C104.24 228.097 100.079 232.257 94.9671 232.257H80.6096C75.4974 232.256 71.3372 228.097 71.3372 222.985V211.237L71.3489 210.76C71.5979 205.869 75.6574 201.965 80.6096 201.965ZM80.4729 223.122H95.1038V211.1H80.4729V223.122Z" fill="white" stroke="#7700D1" stroke-width="2"/>
<path d="M32.5443 201.965H46.9007C52.0129 201.965 56.1741 206.125 56.1742 211.237V222.985C56.1741 228.097 52.013 232.257 46.9007 232.257H32.5443C27.4321 232.256 23.2718 228.096 23.2718 222.985V211.237L23.2835 210.76C23.5326 205.869 27.592 201.965 32.5443 201.965ZM32.4076 223.122H47.0374V211.1H32.4076V223.122Z" fill="white" stroke="#7700D1" stroke-width="2"/>
<path d="M80.6104 244.25H94.9678C100.079 244.25 104.239 248.41 104.24 253.522V265.27C104.24 270.382 100.08 274.543 94.9678 274.543H80.6104C75.4983 274.542 71.338 270.382 71.338 265.27V253.522L71.3497 253.045C71.5907 248.312 75.4001 244.502 80.1339 244.261L80.6104 244.25ZM80.4737 265.406H95.1036V253.385H80.4737V265.406Z" fill="white" stroke="#7700D1" stroke-width="2"/>
<path d="M32.5443 244.25H46.9007C52.0129 244.25 56.1741 248.41 56.1742 253.522V265.27C56.1742 270.382 52.013 274.543 46.9007 274.543H32.5443C27.4321 274.542 23.2718 270.382 23.2718 265.27V253.522L23.2835 253.045C23.5326 248.154 27.592 244.25 32.5443 244.25ZM32.4076 265.406H47.0374V253.385H32.4076V265.406Z" fill="white" stroke="#7700D1" stroke-width="2"/>
<path d="M128.677 244.249H143.033C148.146 244.249 152.307 248.409 152.307 253.521V265.269C152.307 270.382 148.146 274.542 143.033 274.542H128.677C123.565 274.542 119.405 270.382 119.405 265.269V253.521L119.416 253.045C119.657 248.311 123.467 244.502 128.2 244.261L128.677 244.249ZM128.54 265.407H143.17V253.386H128.54V265.407Z" fill="white" stroke="#7700D1" stroke-width="2"/>
<mask id="path-8-inside-1_2_528" fill="white">
<path d="M367.464 331.513L358.535 315.899L364.283 258.921C367.196 230.053 355.688 201.657 333.501 182.96L286.666 143.495L237.808 58.0665C234.711 52.6506 229.689 48.7649 223.67 47.1256C217.65 45.4872 211.351 46.289 205.936 49.387L175.579 66.7489V31.2374C175.579 14.0129 161.566 0 144.342 0H31.2372C14.0127 0 -0.000213623 14.0129 -0.000213623 31.2374V267.993C-0.000213623 284.141 12.3148 297.465 28.0456 299.069V363.28C28.0456 365.868 29.3515 368.241 31.5394 369.626C33.728 371.011 36.4318 371.176 38.7711 370.068L50.9651 364.295L66.7078 371.117C67.6581 371.528 68.6745 371.734 69.6916 371.734C70.7473 371.734 71.803 371.513 72.7844 371.07L87.83 364.274L103.493 371.1C105.483 371.967 107.749 371.933 109.711 371.004L123.831 364.314L136.948 370.201C139.282 371.248 141.957 371.044 144.104 369.653C146.251 368.263 147.533 365.906 147.533 363.348V299.069C163.264 297.465 175.579 284.141 175.579 267.993V249.536L182.444 261.539C183.187 262.838 184.044 264.047 184.996 265.16L182.61 277.097C181.591 282.196 182.619 287.385 185.503 291.711C188.387 296.037 192.784 298.981 197.882 299.999C199.166 300.256 200.457 300.383 201.737 300.383C205.541 300.383 209.26 299.264 212.496 297.107C212.553 297.069 212.606 297.029 212.662 296.991C215.421 301.219 219.807 304.382 225.137 305.448C226.403 305.701 227.673 305.823 228.931 305.823C232.16 305.823 235.308 305.008 238.105 303.513C245.133 324.263 257.602 343.056 274.383 357.565L278.297 360.95L287.588 377.195C288.616 378.993 290.495 380 292.426 380C293.364 380 294.314 379.763 295.186 379.264C297.855 377.738 298.781 374.336 297.255 371.667L287.492 354.596C287.18 354.049 286.777 353.56 286.301 353.148L281.667 349.142C258.421 329.042 244.266 299.909 242.833 269.21L240.895 227.697C240.772 225.066 240.016 222.466 238.707 220.177L219.679 186.906C218.279 184.458 217.916 181.612 218.657 178.891C219.399 176.17 221.155 173.9 223.603 172.501C226.051 171.101 228.896 170.736 231.618 171.479C234.339 172.22 236.609 173.976 238.008 176.424L248.641 195.015C250.168 197.685 253.57 198.61 256.238 197.085C258.908 195.558 259.834 192.156 258.308 189.487L247.676 170.896C244.799 165.866 240.136 162.257 234.545 160.734C228.954 159.212 223.104 159.958 218.075 162.835C207.691 168.773 204.075 182.053 210.014 192.436L229.042 225.707C229.479 226.471 229.731 227.339 229.772 228.217L230.697 248.023L208.789 260.553C205.955 262.174 202.66 262.595 199.51 261.736C196.36 260.878 193.733 258.845 192.112 256.011L148.314 179.432C146.787 176.762 143.385 175.835 140.717 177.363C138.048 178.889 137.121 182.291 138.648 184.961L148.829 202.763C147.179 201.631 145.184 200.965 143.035 200.965H128.679C123.014 200.965 118.406 205.573 118.406 211.238V222.986C118.406 228.65 123.014 233.258 128.679 233.258H143.035C148.7 233.258 153.308 228.65 153.308 222.986V211.238C153.308 211 153.288 210.766 153.272 210.531L164.444 230.065C164.444 230.065 164.444 252.988 164.444 267.994C164.444 283 157 288.095 144.343 288.095C131.687 288.095 31.2372 288.095 31.2372 288.095C20.1531 288.095 11.1359 279.078 11.1359 267.994V31.2374C11.1359 20.1533 20.1531 11.1361 31.2372 11.1361H144.342C155.425 11.1361 164.442 20.1533 164.442 31.2374V73.118L153.306 79.4871V51.0485C153.306 46.1056 149.285 42.084 144.342 42.084H31.2372C26.2935 42.084 22.2719 46.1056 22.2719 51.0493V74.8122C22.2719 77.8872 24.7649 80.3802 27.84 80.3802C30.915 80.3802 33.408 77.8872 33.408 74.8122V53.22H142.17V85.8554L117.081 100.205C106.919 106.016 102.779 118.359 106.911 128.955H33.408V98.5409C33.408 95.4659 30.915 92.9729 27.84 92.9729C24.7649 92.9729 22.2719 95.4659 22.2719 98.5409V131.126C22.2719 136.069 26.2935 140.091 31.2372 140.091H112.985L126.866 164.363C128.394 167.031 131.794 167.958 134.464 166.432C137.134 164.905 138.06 161.504 136.533 158.834L118.069 126.55C114.723 120.699 116.761 113.218 122.611 109.872L211.466 59.0546C214.299 57.4339 217.594 57.013 220.744 57.872C223.894 58.7294 226.522 60.7629 228.142 63.5966L302.184 193.059C303.805 195.893 304.225 199.189 303.367 202.339C302.509 205.489 300.476 208.115 297.643 209.736L276.728 221.697L270.087 210.084C268.56 207.415 265.157 206.489 262.489 208.015C259.82 209.542 258.893 212.943 260.42 215.613L275.441 241.877C276.469 243.674 278.347 244.682 280.279 244.682C281.217 244.682 282.166 244.445 283.039 243.946C285.708 242.42 286.634 239.018 285.108 236.348L282.257 231.364L303.171 219.403C308.587 216.306 312.473 211.284 314.112 205.265C315.751 199.245 314.948 192.947 311.851 187.531L302.743 171.606L326.325 191.477C345.698 207.803 355.747 232.598 353.204 257.805L347.277 316.558C347.16 317.712 347.407 318.874 347.984 319.882L357.799 337.044C358.827 338.841 360.705 339.849 362.637 339.849C363.575 339.849 364.524 339.612 365.397 339.113C368.066 337.584 368.991 334.182 367.464 331.513ZM231.709 269.731C232.064 277.34 233.137 284.861 234.869 292.202C232.93 294.166 230.099 295.083 227.32 294.528C222.816 293.629 219.885 289.232 220.784 284.729L224.894 264.171L231.278 260.519L231.709 269.731ZM202.757 273.312C205.964 273.312 209.136 272.634 212.108 271.322L209.864 282.545C209.429 284.726 208.169 286.608 206.318 287.842C204.466 289.078 202.246 289.516 200.065 289.08C197.883 288.644 196.002 287.384 194.768 285.533C193.533 283.683 193.093 281.462 193.53 279.28L194.989 271.979C195.513 272.161 196.042 272.333 196.583 272.48C198.624 273.037 200.697 273.312 202.757 273.312ZM142.17 222.122H129.541V212.101H142.17V222.122ZM136.397 357.748L126.863 353.469C124.855 352.57 122.564 352.593 120.573 353.535L106.432 360.233L90.8041 353.423C88.8634 352.576 86.6429 352.591 84.7112 353.463L69.6619 360.261L53.8865 353.425C52.9325 353.011 51.9162 352.805 50.8991 352.805C49.8003 352.805 48.7015 353.046 47.6845 353.527L39.181 357.553V299.231H136.397V357.748Z"/>
</mask>
<path d="M367.464 331.513L358.535 315.899L364.283 258.921C367.196 230.053 355.688 201.657 333.501 182.96L286.666 143.495L237.808 58.0665C234.711 52.6506 229.689 48.7649 223.67 47.1256C217.65 45.4872 211.351 46.289 205.936 49.387L175.579 66.7489V31.2374C175.579 14.0129 161.566 0 144.342 0H31.2372C14.0127 0 -0.000213623 14.0129 -0.000213623 31.2374V267.993C-0.000213623 284.141 12.3148 297.465 28.0456 299.069V363.28C28.0456 365.868 29.3515 368.241 31.5394 369.626C33.728 371.011 36.4318 371.176 38.7711 370.068L50.9651 364.295L66.7078 371.117C67.6581 371.528 68.6745 371.734 69.6916 371.734C70.7473 371.734 71.803 371.513 72.7844 371.07L87.83 364.274L103.493 371.1C105.483 371.967 107.749 371.933 109.711 371.004L123.831 364.314L136.948 370.201C139.282 371.248 141.957 371.044 144.104 369.653C146.251 368.263 147.533 365.906 147.533 363.348V299.069C163.264 297.465 175.579 284.141 175.579 267.993V249.536L182.444 261.539C183.187 262.838 184.044 264.047 184.996 265.16L182.61 277.097C181.591 282.196 182.619 287.385 185.503 291.711C188.387 296.037 192.784 298.981 197.882 299.999C199.166 300.256 200.457 300.383 201.737 300.383C205.541 300.383 209.26 299.264 212.496 297.107C212.553 297.069 212.606 297.029 212.662 296.991C215.421 301.219 219.807 304.382 225.137 305.448C226.403 305.701 227.673 305.823 228.931 305.823C232.16 305.823 235.308 305.008 238.105 303.513C245.133 324.263 257.602 343.056 274.383 357.565L278.297 360.95L287.588 377.195C288.616 378.993 290.495 380 292.426 380C293.364 380 294.314 379.763 295.186 379.264C297.855 377.738 298.781 374.336 297.255 371.667L287.492 354.596C287.18 354.049 286.777 353.56 286.301 353.148L281.667 349.142C258.421 329.042 244.266 299.909 242.833 269.21L240.895 227.697C240.772 225.066 240.016 222.466 238.707 220.177L219.679 186.906C218.279 184.458 217.916 181.612 218.657 178.891C219.399 176.17 221.155 173.9 223.603 172.501C226.051 171.101 228.896 170.736 231.618 171.479C234.339 172.22 236.609 173.976 238.008 176.424L248.641 195.015C250.168 197.685 253.57 198.61 256.238 197.085C258.908 195.558 259.834 192.156 258.308 189.487L247.676 170.896C244.799 165.866 240.136 162.257 234.545 160.734C228.954 159.212 223.104 159.958 218.075 162.835C207.691 168.773 204.075 182.053 210.014 192.436L229.042 225.707C229.479 226.471 229.731 227.339 229.772 228.217L230.697 248.023L208.789 260.553C205.955 262.174 202.66 262.595 199.51 261.736C196.36 260.878 193.733 258.845 192.112 256.011L148.314 179.432C146.787 176.762 143.385 175.835 140.717 177.363C138.048 178.889 137.121 182.291 138.648 184.961L148.829 202.763C147.179 201.631 145.184 200.965 143.035 200.965H128.679C123.014 200.965 118.406 205.573 118.406 211.238V222.986C118.406 228.65 123.014 233.258 128.679 233.258H143.035C148.7 233.258 153.308 228.65 153.308 222.986V211.238C153.308 211 153.288 210.766 153.272 210.531L164.444 230.065C164.444 230.065 164.444 252.988 164.444 267.994C164.444 283 157 288.095 144.343 288.095C131.687 288.095 31.2372 288.095 31.2372 288.095C20.1531 288.095 11.1359 279.078 11.1359 267.994V31.2374C11.1359 20.1533 20.1531 11.1361 31.2372 11.1361H144.342C155.425 11.1361 164.442 20.1533 164.442 31.2374V73.118L153.306 79.4871V51.0485C153.306 46.1056 149.285 42.084 144.342 42.084H31.2372C26.2935 42.084 22.2719 46.1056 22.2719 51.0493V74.8122C22.2719 77.8872 24.7649 80.3802 27.84 80.3802C30.915 80.3802 33.408 77.8872 33.408 74.8122V53.22H142.17V85.8554L117.081 100.205C106.919 106.016 102.779 118.359 106.911 128.955H33.408V98.5409C33.408 95.4659 30.915 92.9729 27.84 92.9729C24.7649 92.9729 22.2719 95.4659 22.2719 98.5409V131.126C22.2719 136.069 26.2935 140.091 31.2372 140.091H112.985L126.866 164.363C128.394 167.031 131.794 167.958 134.464 166.432C137.134 164.905 138.06 161.504 136.533 158.834L118.069 126.55C114.723 120.699 116.761 113.218 122.611 109.872L211.466 59.0546C214.299 57.4339 217.594 57.013 220.744 57.872C223.894 58.7294 226.522 60.7629 228.142 63.5966L302.184 193.059C303.805 195.893 304.225 199.189 303.367 202.339C302.509 205.489 300.476 208.115 297.643 209.736L276.728 221.697L270.087 210.084C268.56 207.415 265.157 206.489 262.489 208.015C259.82 209.542 258.893 212.943 260.42 215.613L275.441 241.877C276.469 243.674 278.347 244.682 280.279 244.682C281.217 244.682 282.166 244.445 283.039 243.946C285.708 242.42 286.634 239.018 285.108 236.348L282.257 231.364L303.171 219.403C308.587 216.306 312.473 211.284 314.112 205.265C315.751 199.245 314.948 192.947 311.851 187.531L302.743 171.606L326.325 191.477C345.698 207.803 355.747 232.598 353.204 257.805L347.277 316.558C347.16 317.712 347.407 318.874 347.984 319.882L357.799 337.044C358.827 338.841 360.705 339.849 362.637 339.849C363.575 339.849 364.524 339.612 365.397 339.113C368.066 337.584 368.991 334.182 367.464 331.513ZM231.709 269.731C232.064 277.34 233.137 284.861 234.869 292.202C232.93 294.166 230.099 295.083 227.32 294.528C222.816 293.629 219.885 289.232 220.784 284.729L224.894 264.171L231.278 260.519L231.709 269.731ZM202.757 273.312C205.964 273.312 209.136 272.634 212.108 271.322L209.864 282.545C209.429 284.726 208.169 286.608 206.318 287.842C204.466 289.078 202.246 289.516 200.065 289.08C197.883 288.644 196.002 287.384 194.768 285.533C193.533 283.683 193.093 281.462 193.53 279.28L194.989 271.979C195.513 272.161 196.042 272.333 196.583 272.48C198.624 273.037 200.697 273.312 202.757 273.312ZM142.17 222.122H129.541V212.101H142.17V222.122ZM136.397 357.748L126.863 353.469C124.855 352.57 122.564 352.593 120.573 353.535L106.432 360.233L90.8041 353.423C88.8634 352.576 86.6429 352.591 84.7112 353.463L69.6619 360.261L53.8865 353.425C52.9325 353.011 51.9162 352.805 50.8991 352.805C49.8003 352.805 48.7015 353.046 47.6845 353.527L39.181 357.553V299.231H136.397V357.748Z" fill="white"/>
<path d="M367.464 331.513L358.535 315.899L364.283 258.921C367.196 230.053 355.688 201.657 333.501 182.96L286.666 143.495L237.808 58.0665C234.711 52.6506 229.689 48.7649 223.67 47.1256C217.65 45.4872 211.351 46.289 205.936 49.387L175.579 66.7489V31.2374C175.579 14.0129 161.566 0 144.342 0H31.2372C14.0127 0 -0.000213623 14.0129 -0.000213623 31.2374V267.993C-0.000213623 284.141 12.3148 297.465 28.0456 299.069V363.28C28.0456 365.868 29.3515 368.241 31.5394 369.626C33.728 371.011 36.4318 371.176 38.7711 370.068L50.9651 364.295L66.7078 371.117C67.6581 371.528 68.6745 371.734 69.6916 371.734C70.7473 371.734 71.803 371.513 72.7844 371.07L87.83 364.274L103.493 371.1C105.483 371.967 107.749 371.933 109.711 371.004L123.831 364.314L136.948 370.201C139.282 371.248 141.957 371.044 144.104 369.653C146.251 368.263 147.533 365.906 147.533 363.348V299.069C163.264 297.465 175.579 284.141 175.579 267.993V249.536L182.444 261.539C183.187 262.838 184.044 264.047 184.996 265.16L182.61 277.097C181.591 282.196 182.619 287.385 185.503 291.711C188.387 296.037 192.784 298.981 197.882 299.999C199.166 300.256 200.457 300.383 201.737 300.383C205.541 300.383 209.26 299.264 212.496 297.107C212.553 297.069 212.606 297.029 212.662 296.991C215.421 301.219 219.807 304.382 225.137 305.448C226.403 305.701 227.673 305.823 228.931 305.823C232.16 305.823 235.308 305.008 238.105 303.513C245.133 324.263 257.602 343.056 274.383 357.565L278.297 360.95L287.588 377.195C288.616 378.993 290.495 380 292.426 380C293.364 380 294.314 379.763 295.186 379.264C297.855 377.738 298.781 374.336 297.255 371.667L287.492 354.596C287.18 354.049 286.777 353.56 286.301 353.148L281.667 349.142C258.421 329.042 244.266 299.909 242.833 269.21L240.895 227.697C240.772 225.066 240.016 222.466 238.707 220.177L219.679 186.906C218.279 184.458 217.916 181.612 218.657 178.891C219.399 176.17 221.155 173.9 223.603 172.501C226.051 171.101 228.896 170.736 231.618 171.479C234.339 172.22 236.609 173.976 238.008 176.424L248.641 195.015C250.168 197.685 253.57 198.61 256.238 197.085C258.908 195.558 259.834 192.156 258.308 189.487L247.676 170.896C244.799 165.866 240.136 162.257 234.545 160.734C228.954 159.212 223.104 159.958 218.075 162.835C207.691 168.773 204.075 182.053 210.014 192.436L229.042 225.707C229.479 226.471 229.731 227.339 229.772 228.217L230.697 248.023L208.789 260.553C205.955 262.174 202.66 262.595 199.51 261.736C196.36 260.878 193.733 258.845 192.112 256.011L148.314 179.432C146.787 176.762 143.385 175.835 140.717 177.363C138.048 178.889 137.121 182.291 138.648 184.961L148.829 202.763C147.179 201.631 145.184 200.965 143.035 200.965H128.679C123.014 200.965 118.406 205.573 118.406 211.238V222.986C118.406 228.65 123.014 233.258 128.679 233.258H143.035C148.7 233.258 153.308 228.65 153.308 222.986V211.238C153.308 211 153.288 210.766 153.272 210.531L164.444 230.065C164.444 230.065 164.444 252.988 164.444 267.994C164.444 283 157 288.095 144.343 288.095C131.687 288.095 31.2372 288.095 31.2372 288.095C20.1531 288.095 11.1359 279.078 11.1359 267.994V31.2374C11.1359 20.1533 20.1531 11.1361 31.2372 11.1361H144.342C155.425 11.1361 164.442 20.1533 164.442 31.2374V73.118L153.306 79.4871V51.0485C153.306 46.1056 149.285 42.084 144.342 42.084H31.2372C26.2935 42.084 22.2719 46.1056 22.2719 51.0493V74.8122C22.2719 77.8872 24.7649 80.3802 27.84 80.3802C30.915 80.3802 33.408 77.8872 33.408 74.8122V53.22H142.17V85.8554L117.081 100.205C106.919 106.016 102.779 118.359 106.911 128.955H33.408V98.5409C33.408 95.4659 30.915 92.9729 27.84 92.9729C24.7649 92.9729 22.2719 95.4659 22.2719 98.5409V131.126C22.2719 136.069 26.2935 140.091 31.2372 140.091H112.985L126.866 164.363C128.394 167.031 131.794 167.958 134.464 166.432C137.134 164.905 138.06 161.504 136.533 158.834L118.069 126.55C114.723 120.699 116.761 113.218 122.611 109.872L211.466 59.0546C214.299 57.4339 217.594 57.013 220.744 57.872C223.894 58.7294 226.522 60.7629 228.142 63.5966L302.184 193.059C303.805 195.893 304.225 199.189 303.367 202.339C302.509 205.489 300.476 208.115 297.643 209.736L276.728 221.697L270.087 210.084C268.56 207.415 265.157 206.489 262.489 208.015C259.82 209.542 258.893 212.943 260.42 215.613L275.441 241.877C276.469 243.674 278.347 244.682 280.279 244.682C281.217 244.682 282.166 244.445 283.039 243.946C285.708 242.42 286.634 239.018 285.108 236.348L282.257 231.364L303.171 219.403C308.587 216.306 312.473 211.284 314.112 205.265C315.751 199.245 314.948 192.947 311.851 187.531L302.743 171.606L326.325 191.477C345.698 207.803 355.747 232.598 353.204 257.805L347.277 316.558C347.16 317.712 347.407 318.874 347.984 319.882L357.799 337.044C358.827 338.841 360.705 339.849 362.637 339.849C363.575 339.849 364.524 339.612 365.397 339.113C368.066 337.584 368.991 334.182 367.464 331.513ZM231.709 269.731C232.064 277.34 233.137 284.861 234.869 292.202C232.93 294.166 230.099 295.083 227.32 294.528C222.816 293.629 219.885 289.232 220.784 284.729L224.894 264.171L231.278 260.519L231.709 269.731ZM202.757 273.312C205.964 273.312 209.136 272.634 212.108 271.322L209.864 282.545C209.429 284.726 208.169 286.608 206.318 287.842C204.466 289.078 202.246 289.516 200.065 289.08C197.883 288.644 196.002 287.384 194.768 285.533C193.533 283.683 193.093 281.462 193.53 279.28L194.989 271.979C195.513 272.161 196.042 272.333 196.583 272.48C198.624 273.037 200.697 273.312 202.757 273.312ZM142.17 222.122H129.541V212.101H142.17V222.122ZM136.397 357.748L126.863 353.469C124.855 352.57 122.564 352.593 120.573 353.535L106.432 360.233L90.8041 353.423C88.8634 352.576 86.6429 352.591 84.7112 353.463L69.6619 360.261L53.8865 353.425C52.9325 353.011 51.9162 352.805 50.8991 352.805C49.8003 352.805 48.7015 353.046 47.6845 353.527L39.181 357.553V299.231H136.397V357.748Z" stroke="#7700D1" stroke-width="4" mask="url(#path-8-inside-1_2_528)"/>
<path d="M177.996 98.8368C187.329 93.4991 198.13 91.9938 208.531 94.5556L209.536 94.8163C211.894 95.4582 213.316 97.8338 212.8 100.195L212.744 100.424C212.102 102.781 209.724 104.203 207.364 103.687L207.136 103.632C199.046 101.429 190.59 102.406 183.24 106.375L182.532 106.768C175.255 110.93 169.967 117.601 167.576 125.605L167.353 126.384C166.8 128.415 164.959 129.753 162.949 129.753C162.652 129.753 162.351 129.724 162.049 129.663L161.746 129.591C159.388 128.949 157.966 126.572 158.482 124.211L158.539 123.983C161.364 113.609 167.935 104.907 177.101 99.3642L177.996 98.8368Z" fill="white" stroke="#7700D1" stroke-width="2"/>
<path d="M189.056 118.17C193.381 115.697 198.389 115.001 203.218 116.191L203.683 116.312C206.041 116.954 207.463 119.331 206.946 121.692L206.89 121.92C206.226 124.354 203.715 125.788 201.282 125.126H201.281C198.832 124.46 196.276 124.722 194.035 125.861L193.592 126.1L193.591 126.101C191.394 127.358 189.776 129.354 188.996 131.752L188.85 132.237C188.297 134.268 186.456 135.606 184.446 135.606C184.149 135.606 183.848 135.576 183.546 135.515L183.243 135.444C180.885 134.802 179.463 132.425 179.979 130.064L180.036 129.835C181.39 124.862 184.591 120.722 189.055 118.169L189.056 118.17Z" fill="white" stroke="#7700D1" stroke-width="2"/>
<path d="M199.561 136.541C201.682 135.327 204.367 136.003 205.672 138.038L205.794 138.239L207.644 141.472C208.857 143.594 208.181 146.28 206.147 147.584L205.946 147.706C205.228 148.116 204.451 148.309 203.683 148.309C202.195 148.309 200.749 147.582 199.879 146.277L199.713 146.008L197.864 142.774C196.651 140.652 197.326 137.967 199.36 136.663L199.561 136.541Z" fill="white" stroke="#7700D1" stroke-width="2"/>
<rect x="108.995" y="207.701" width="39.0325" height="39.7442" transform="rotate(-29.7722 108.995 207.701)" fill="#7700D1"/>
<path d="M128.048 201.965H142.405C147.517 201.965 151.678 206.125 151.678 211.237V222.985C151.678 228.097 147.518 232.257 142.405 232.257H128.048C122.936 232.256 118.775 228.097 118.775 222.985V211.237L118.787 210.76C119.036 205.869 123.095 201.965 128.048 201.965ZM127.911 223.122H142.542V211.1H127.911V223.122Z" fill="white" stroke="#7700D1" stroke-width="2"/>
<rect x="127.902" y="162.168" width="7.24946" height="30.1653" transform="rotate(-29.6467 127.902 162.168)" fill="white"/>
<rect x="247.58" y="189.143" width="7.33374" height="30.1653" transform="rotate(-29.6467 247.58 189.143)" fill="white"/>
<path d="M287.042 152.334L301.068 172.649L304.121 170.199L287.042 152.334Z" fill="#7700D1"/>
<rect x="24.2718" y="71.6179" width="7.15535" height="30.1653" fill="white"/>
</svg>
